<svg id="Layer_1" data-name="Layer 1" xmlns="http://www.w3.org/2000/svg" xmlns:xlink="http://www.w3.org/1999/xlink" viewBox="0 0 131.28505 83.69012"><defs><style>.cls-1{fill:none;}.cls-2{clip-path:url(#clip-path);}.cls-3{fill:#ca582f;}.cls-4{fill:#ecab36;}</style><clipPath id="clip-path" transform="translate(-113.81216 -43.29941)"><rect class="cls-1" x="-2.04445" width="266.39999" height="158.39999"/></clipPath></defs><g class="cls-2"><path class="cls-3" d="M129.78555,65.09c.19-.09.36-.18.54-.26a5.87349,5.87349,0,0,1,6.24.51,5.43771,5.43771,0,0,1,2.35,3.71,5.77035,5.77035,0,0,1-3.02,6.15,7.23033,7.23033,0,0,1-7.72-.35,7.46634,7.46634,0,0,1-3.32-5.58,8.42555,8.42555,0,0,1,.91-4.78,13.31805,13.31805,0,0,1,5.63-5.85,19.27412,19.27412,0,0,1,6.31-2.32c.95-.17,1.92-.29,2.88-.37,1-.08,2.01-.1,3.02-.12a27.24469,27.24469,0,0,1,5.62.61,43.86767,43.86767,0,0,1,6.62,2,34.90557,34.90557,0,0,0,5.3,1.63,24.10229,24.10229,0,0,0,3.69.52c.53.02,1.06.08,1.59.07a5.17912,5.17912,0,0,0,3.63-1.46,3.15291,3.15291,0,0,0,.89-1.55,2.78755,2.78755,0,0,0-.98-2.9c-.41-.37-.88-.66-1.31-1a7.603,7.603,0,0,1-2.06-2.48,4.71792,4.71792,0,0,1-.33-3.42,4.95509,4.95509,0,0,1,2.1-2.98,8.41008,8.41008,0,0,1,3.18-1.44,7.50772,7.50772,0,0,1,4.46.53,7.7906,7.7906,0,0,1,4.78,6.27,10.177,10.177,0,0,1-1.01,6.08,10.60547,10.60547,0,0,1-2.06,2.97,10.38269,10.38269,0,0,1-3.91,2.39,12.54478,12.54478,0,0,1-3.17.69.57867.57867,0,0,0-.07.21c-.03.7-.07,1.39-.07,2.09-.01,4.94-.05,9.88-.01,14.81a20.18172,20.18172,0,0,0,.97,6.54,7.87916,7.87916,0,0,0,1.87,3.14,5.90913,5.90913,0,0,0,2.5,1.46,2.25324,2.25324,0,0,1,.04,1.04,61.06415,61.06415,0,0,0-7.17-1.14,41.22921,41.22921,0,0,0-7.2-.08,37.56415,37.56415,0,0,0-7.16,1.25V90.7a16.4795,16.4795,0,0,0,1.73-.91,6.63639,6.63639,0,0,0,2.4-3.15,16.4004,16.4004,0,0,0,1.02-4.14,42.7759,42.7759,0,0,0,.18-5.99c-.01-1.38-.06-2.75-.07-4.12a14.18467,14.18467,0,0,0-1.49-6.36,14.40094,14.40094,0,0,0-3.16-3.99,16.273,16.273,0,0,0-4.52-2.89,21.71355,21.71355,0,0,0-4.92-1.51c-.72-.13-1.45-.21-2.18-.27a21.66278,21.66278,0,0,0-2.42-.09,16.44117,16.44117,0,0,0-6.89,1.63,10.25965,10.25965,0,0,0-2.91,2.06,5.18189,5.18189,0,0,0-1.39,3.93.76368.76368,0,0,0,.07.19" transform="translate(-113.81216 -43.29941)"/></g><g class="cls-2"><path class="cls-3" d="M204.04555,78.5c-.18.18-.32.32-.45.46a6.32717,6.32717,0,0,1-4.46,1.97,5.78921,5.78921,0,0,1-4.19-1.32,4.8454,4.8454,0,0,1-1.26-1.65,6.31761,6.31761,0,0,1-.48-4.23,5.45751,5.45751,0,0,1,1.67-2.72,7.42476,7.42476,0,0,1,3.55-1.88,5.446,5.446,0,0,1,5.8,2.2,10.39886,10.39886,0,0,1,2.01,5.1,17.91722,17.91722,0,0,1-.03,2.74,10.70746,10.70746,0,0,1-.62,2.95,14.29634,14.29634,0,0,1-5.25,7.09,16.31129,16.31129,0,0,1-6.95,2.86,16.4925,16.4925,0,0,1-3.77.29,23.76837,23.76837,0,0,1-3.64-.5,14.68462,14.68462,0,0,1-3.77-1.32,13.48016,13.48016,0,0,1-4.69-3.99,16.80168,16.80168,0,0,1-2.88-6.01,14.49088,14.49088,0,0,1-.36-5.24,14.10369,14.10369,0,0,1,5.14-9.52,19.64606,19.64606,0,0,1,6.24-3.51,15.69333,15.69333,0,0,1,4.39-.92c.64-.03,1.28-.09,1.92-.09a12.08327,12.08327,0,0,1,5.5,1.32,7.52653,7.52653,0,0,1,3.26,3.32,2.666,2.666,0,0,1,.21.62.4481.4481,0,0,1-.32.6c-.31.1-.64.17-.96.24-1.02.23-2.04.43-3.04.71a7.02151,7.02151,0,0,0-2.72,1.51,13.10605,13.10605,0,0,0-4.43,7.89,7.03812,7.03812,0,0,0,.45,3.89,6.675,6.675,0,0,0,4.09,3.89,9.51845,9.51845,0,0,0,3.88.64,8.23274,8.23274,0,0,0,3.19-.75,5.45227,5.45227,0,0,0,3.03-4.02,5.81968,5.81968,0,0,0-.06-2.62m-16.72,1.1a23.68153,23.68153,0,0,1,.12-3.17,15.85526,15.85526,0,0,1,1.1-4.06,29.86438,29.86438,0,0,0,1.47-3.78,4.73327,4.73327,0,0,0-.66-4.13,2.69278,2.69278,0,0,0-1.54-1.08.86354.86354,0,0,0-.99.27,4.23588,4.23588,0,0,0-.6.97,12.12224,12.12224,0,0,0-.96,4.48,25.29735,25.29735,0,0,0,.3,6.02,12.32834,12.32834,0,0,0,1.38,3.91,5.13654,5.13654,0,0,0,.38.57" transform="translate(-113.81216 -43.29941)"/></g><g class="cls-2"><path class="cls-3" d="M217.01555,82.7c-.27.35-.52.67-.76.99-.87,1.16-1.76,2.3-2.58,3.49a7.26767,7.26767,0,0,0-1.14,2.42,2.03647,2.03647,0,0,0,.97,2.36c.28.17.58.3.89.46v.98c-.01.01-.02.03-.03.04s-.03.03-.04.03a2.44908,2.44908,0,0,1-.27.02h-11.66v-.92c.68-.11,1.35-.19,2.01-.32a9.60872,9.60872,0,0,0,4.15-2.06,32.42651,32.42651,0,0,0,3.72-3.5c.57-.62,1.09-1.29,1.62-1.94.77-.96,1.52-1.93,2.27-2.9.06-.07.1-.15.17-.25-.61-.9-1.22-1.79-1.83-2.68q-2.82-4.17-5.63-8.35c-.7-1.05-1.38-2.12-2.18-3.1a8.4099,8.4099,0,0,0-3.72-2.64c-.17-.06-.34-.13-.51-.19-.03-.01-.05-.04-.1-.08V63.6c.62.14,1.24.28,1.85.41a20.93983,20.93983,0,0,0,3.52.54c.55.03,1.1.09,1.64.1a15.99547,15.99547,0,0,0,6.39-1.08c2.31,3.3,4.62,6.6,6.97,9.96.35-.44.66-.81.96-1.2.55-.73,1.13-1.45,1.64-2.2a6.78777,6.78777,0,0,0,.96-2.32,2.49205,2.49205,0,0,0-1.71-3.04c-.17-.07-.34-.12-.52-.18v-.95c.45-.12,10.5-.17,12.03-.06.01.13.03.27.04.41.01.15,0,.29,0,.47a4.26162,4.26162,0,0,1-.47.15,13.48469,13.48469,0,0,0-6.18,3.08,30.01772,30.01772,0,0,0-4.64,5.05c-.43.59-.92,1.14-1.41,1.74.12.19.23.38.36.55,2.5,3.48,5,6.97,7.52,10.44a9.53356,9.53356,0,0,0,3.43,3.03,6.693,6.693,0,0,0,2.97.68,4.43852,4.43852,0,0,0,3.62-1.66,3.39406,3.39406,0,0,0,.61-3c-.21-.06-.28.13-.39.23a5.29474,5.29474,0,0,1-3.6,1.44,5.57926,5.57926,0,0,1-5.34-3.22,5.7008,5.7008,0,0,1,.35-5.95,5.64,5.64,0,0,1,1.8-1.67,6.99046,6.99046,0,0,1,2.31-1,5.84867,5.84867,0,0,1,3.71.38,7.47234,7.47234,0,0,1,3.71,9.66,13.1017,13.1017,0,0,1-2.29,3.79,14.95158,14.95158,0,0,1-5.51,4.09,16.81543,16.81543,0,0,1-3.9,1.28,10.83984,10.83984,0,0,1-4.74-.17,11.11719,11.11719,0,0,1-5.7-3.55c-.99-1.15-1.9-2.38-2.81-3.6-.76-1.01-1.46-2.07-2.19-3.1-.11-.13-.21-.26-.34-.43" transform="translate(-113.81216 -43.29941)"/></g><g class="cls-2"><path class="cls-3" d="M157.36556,94.85v1.04c-.29,0-.56.02-.82,0a14.77193,14.77193,0,0,1-6.21-2.05,16.6252,16.6252,0,0,0-4.94-1.79,24.996,24.996,0,0,0-3.76-.41c-.09-.01-.18-.02-.32-.04V87.96c-.33.4-.58.7-.83,1a9.704,9.704,0,0,1-6.2,3.43,14.23108,14.23108,0,0,1-3.57.06,7.05587,7.05587,0,0,1-5.74-3.74,5.558,5.558,0,0,1-.67-2.47,7.23744,7.23744,0,0,1,2.41-5.84,10.15863,10.15863,0,0,1,3.22-1.97,13.30113,13.30113,0,0,1,3.83-.91c1.48-.13,2.95-.3,4.43-.4.8-.06,1.61-.03,2.42-.03h.62c.02-.19.05-.33.05-.47-.01-2.24.02-4.48-.04-6.72a15.79258,15.79258,0,0,0-.27-3.28,11.03956,11.03956,0,0,0-2.34-4.61,7.45684,7.45684,0,0,0-3.13-2.22c.26-.05.51-.11.77-.15a16.858,16.858,0,0,1,3.88-.26,13.35081,13.35081,0,0,1,6.61,2.31,10.82264,10.82264,0,0,1,4.85,7.82c.1,1.07.16,2.15.22,3.23.23,4.64.08,9.28.14,13.92a11.816,11.816,0,0,0,.93,4.71,5.318,5.318,0,0,0,2.34,2.61,16.3043,16.3043,0,0,0,1.66.72c.14.05.28.09.46.15m-16.1-16.66a5.33079,5.33079,0,0,0-2,.62,6.74827,6.74827,0,0,0-2.46,2.46,5.79351,5.79351,0,0,0-.61,4.96,3.38313,3.38313,0,0,0,1.52,1.96,1.55849,1.55849,0,0,0,2.1-.21,3.54707,3.54707,0,0,0,.93-1.6,13.48241,13.48241,0,0,0,.54-3.68c.01-1.3.01-2.61.01-3.91,0-.18-.02-.35-.03-.6" transform="translate(-113.81216 -43.29941)"/></g><g class="cls-2"><path class="cls-3" d="M215.94556,109.31a5.09187,5.09187,0,0,0,3.27,2.11,5.64685,5.64685,0,0,0,3.82-.74,6.14861,6.14861,0,0,1,2.05,2.48,6.54743,6.54743,0,0,1,.66,2.7,5.00885,5.00885,0,0,1-1.24,3.6,5.53188,5.53188,0,0,1-3.33,1.88,9.69692,9.69692,0,0,1-3.44-.04,22.93252,22.93252,0,0,1-7.11-2.68c-.93-.51-1.84-1.06-2.77-1.57a14.55309,14.55309,0,0,0-4.44-1.54,25.37939,25.37939,0,0,0-5.64-.32c-.22.01-.43.05-.68.08v-.54a11.01936,11.01936,0,0,0,1.02-.55,4.03324,4.03324,0,0,0,1.47-2.13,9.42006,9.42006,0,0,0,.46-2.42,40.58653,40.58653,0,0,0,.17-5.05,30.44687,30.44687,0,0,0-.31-4.27,6.385,6.385,0,0,0-.96-2.55,3.51964,3.51964,0,0,0-1.86-1.34v-.53c1.05.12,2.08.29,3.11.33a25.49743,25.49743,0,0,0,4.28.07c.63-.08,1.28-.07,1.92-.13.93-.08,1.86-.18,2.82-.27.01.14.02.3.03.46a.93718.93718,0,0,1-.14.1,3.6873,3.6873,0,0,0-2.36,2.51,9.83926,9.83926,0,0,0-.49,2.47c-.19,2.35-.07,4.69-.06,7.04,0,.75.03,1.5.08,2.25a9.35772,9.35772,0,0,0,.89,3.6,5.25063,5.25063,0,0,0,2.32,2.34,10.31,10.31,0,0,0,4.26,1.16,8.72534,8.72534,0,0,0,3.8-.72,10.60982,10.60982,0,0,0,3.88-2.63,8.91521,8.91521,0,0,0,1.25-1.8.55807.55807,0,0,0,.01-.2c-.22.08-.32.26-.46.39a8.973,8.973,0,0,1-4.14,2.39,7.77367,7.77367,0,0,1-8.4-3.15,8.60085,8.60085,0,0,1-1.58-3.94,7.9264,7.9264,0,0,1,1.86-6.6,10.4815,10.4815,0,0,1,5.57-3.24,8.95117,8.95117,0,0,1,4.51.05,4.55872,4.55872,0,0,1,3.33,4.24,5.62329,5.62329,0,0,1-1.42,4.1,6.81614,6.81614,0,0,1-2.56,1.77,12.59558,12.59558,0,0,1-3.13.78.91317.91317,0,0,0-.32.05m-.53-.77a4.52729,4.52729,0,0,0,1.47-2.03,8.28741,8.28741,0,0,0,.2-5.23,4.27194,4.27194,0,0,0-.67-1.49c-.63-.83-1.24-.76-1.67.19a6.264,6.264,0,0,0-.52,2.29,14.48139,14.48139,0,0,0,.2,3.83,6.235,6.235,0,0,0,.99,2.44" transform="translate(-113.81216 -43.29941)"/></g><g class="cls-2"><path class="cls-3" d="M141.56555,100.37a7.24193,7.24193,0,0,1,1.81,6.93c-.67,2.66-2.68,4.03-5.24,4.96.63.12,1.13.2,1.61.31a11.5059,11.5059,0,0,1,4.67,1.96,6.91278,6.91278,0,0,1,2.46,3.04,5.13793,5.13793,0,0,1-.23,4.1,7.23264,7.23264,0,0,1-2.84,3.06,14.85,14.85,0,0,1-4.59,1.78,21.71363,21.71363,0,0,1-6.07.44,18.70251,18.70251,0,0,1-4.32-.74,9.778,9.778,0,0,1-3.73-2.06,4.06286,4.06286,0,0,1-1.41-3.11,4.3402,4.3402,0,0,1,1.58-3.38,9.51653,9.51653,0,0,1,5.11-2.24,10.54566,10.54566,0,0,1,4.15.14,4.47648,4.47648,0,0,1,3.5,3.81,3.66912,3.66912,0,0,1-2.77,4.17,4.43344,4.43344,0,0,1-2.23,0,3.07977,3.07977,0,0,1-2.3-3,3.119,3.119,0,0,1,2.3-3.06,3.30068,3.30068,0,0,1,1.79.04c.15.05.31.11.55.19a1.5518,1.5518,0,0,0-.13-.44,1.88455,1.88455,0,0,0-.82-.71,2.97233,2.97233,0,0,0-3.5.79,5.52584,5.52584,0,0,0-1.24,3,6.15288,6.15288,0,0,0,.21,2.22,4.27616,4.27616,0,0,0,3.15,3.21,6.17135,6.17135,0,0,0,5.26-.79,5.47162,5.47162,0,0,0,2.45-4.33,10.01639,10.01639,0,0,0-.24-3.37,5.59311,5.59311,0,0,0-3.42-3.97,4.53927,4.53927,0,0,0-1.72-.33h-5.31v-.95h1.31a.29227.29227,0,0,0,.02-.09c-.08-.05-.15-.11-.23-.15a7.19741,7.19741,0,0,1-3.42-2.91,6.32617,6.32617,0,0,1-.87-2.58,7.27719,7.27719,0,0,1,.48-3.88,6.51533,6.51533,0,0,1,2.52-2.9,10.09079,10.09079,0,0,1,4.34-1.43,9.66109,9.66109,0,0,1,5.64,1.04,5.48384,5.48384,0,0,1,.52.31.90039.90039,0,0,0,1.24-.07,4.78649,4.78649,0,0,0,.44-.52.93577.93577,0,0,0-.57-.09,2.53757,2.53757,0,0,1-2.33-1.8,2.63973,2.63973,0,0,1,2.47-3.48,3.34647,3.34647,0,0,1,1.27,6.49c-.39.15-.82.24-1.32.39m-4.13,5a12.5756,12.5756,0,0,0-.22-3.19,7.95241,7.95241,0,0,0-.64-2.2,4.29641,4.29641,0,0,0-.71-1.03.85364.85364,0,0,0-1.28-.03,2.52926,2.52926,0,0,0-.57.73,9.08978,9.08978,0,0,0-.98,4.01,25.165,25.165,0,0,0-.05,3.01,15.9016,15.9016,0,0,0,.61,3.44,4.01862,4.01862,0,0,0,.74,1.4,1.08536,1.08536,0,0,0,1.64.06,4.28891,4.28891,0,0,0,.9-1.68,13.30824,13.30824,0,0,0,.56-4.52" transform="translate(-113.81216 -43.29941)"/></g><g class="cls-2"><path class="cls-3" d="M178.55556,117.61v-.54a7.46363,7.46363,0,0,0,.87-.33,3.25667,3.25667,0,0,0,1.63-1.64,6.52833,6.52833,0,0,0,.52-2.52.91505.91505,0,0,0-.55.29,13.1914,13.1914,0,0,1-6.49,2.77,12.96372,12.96372,0,0,1-4.48-.12,7.73736,7.73736,0,0,1-4.76-3.22,8.91653,8.91653,0,0,1-1.67-5.04,7.72669,7.72669,0,0,1,3.1-6.81,10.511,10.511,0,0,1,5-2.26,8.50044,8.50044,0,0,1,4.13.23,4.24807,4.24807,0,0,1,3.07,3.54,5.48728,5.48728,0,0,1-2.05,5.37,8.40016,8.40016,0,0,1-3.72,1.68c-.51.11-1.04.19-1.58.29a1.75182,1.75182,0,0,0,.64.75,6.036,6.036,0,0,0,3.72,1.43,8.947,8.947,0,0,0,6.82-2.64,24.2894,24.2894,0,0,0,3.36-4.2c.92-1.33,1.82-2.66,2.77-3.97a10.76485,10.76485,0,0,1,1.39-1.55,3.69291,3.69291,0,0,1,3.2-.98,3.62218,3.62218,0,0,1,2.19,1.27,8.88638,8.88638,0,0,1,1.85,3.58,10.27683,10.27683,0,0,1-.24,6.37,8.057,8.057,0,0,1-3.75,4.37,10.93891,10.93891,0,0,1-4.27,1.34c-.64.07-1.28.08-1.92.12a12.11469,12.11469,0,0,0-4.88,1.14c-.62.32-1.27.58-1.91.85a4.95591,4.95591,0,0,1-1.99.43m9.19-2.98a2.40971,2.40971,0,0,0,.26-.14,5.154,5.154,0,0,0,1.61-1.98,12.18052,12.18052,0,0,0,1.28-4.17,9.72429,9.72429,0,0,0-.24-3.91,3.97539,3.97539,0,0,0-.65-1.38.74937.74937,0,0,0-1.35.03,3.64273,3.64273,0,0,0-.41.95,14.70755,14.70755,0,0,0-.49,3.74q-.015,3.135-.01,6.27l0,.59m-16.65-6.13a7.96853,7.96853,0,0,0,.73-.84,6.98571,6.98571,0,0,0,1.12-3.23,7.99428,7.99428,0,0,0-.49-3.82,3.53406,3.53406,0,0,0-.71-1.09c-.44-.47-.88-.41-1.21.14a3.6546,3.6546,0,0,0-.39.96,11.561,11.561,0,0,0-.3,4.14,7.63024,7.63024,0,0,0,.51,2.4,3.64142,3.64142,0,0,0,.74,1.34" transform="translate(-113.81216 -43.29941)"/></g><g class="cls-2"><path class="cls-3" d="M164.52556,116.48v.46a.37386.37386,0,0,1-.11.04c-.57-.05-1.13-.12-1.7-.16a7.9704,7.9704,0,0,0-5.26,1.74c-.58.42-1.14.87-1.73,1.26a4.15615,4.15615,0,0,1-2.22.72c-.15-.22-.09-.37.15-.46a2.25126,2.25126,0,0,0,1.2-1.43,8.69435,8.69435,0,0,0,.54-2.4c.08-.86.1-1.72.13-2.58a3.47435,3.47435,0,0,0-.02-.43c-.35.37-.65.7-.97,1.01a5.03913,5.03913,0,0,1-3.08,1.44,6.041,6.041,0,0,1-3.04-.24,3.72133,3.72133,0,0,1-2.18-5.03,4.3083,4.3083,0,0,1,1.61-1.97,7.581,7.581,0,0,1,3.39-1.19,31.45392,31.45392,0,0,1,4-.23,1.32283,1.32283,0,0,0,.24-.04,3.27451,3.27451,0,0,0,.04-.43c0-1.17.02-2.35,0-3.52a5.29458,5.29458,0,0,0-.56-2.44,3.5245,3.5245,0,0,0-1.66-1.62,2.30286,2.30286,0,0,0-2.31.14,1.50144,1.50144,0,0,0-.67.9c.35.03.67.06.99.09a3.18846,3.18846,0,0,1,2.76,3.02,3.351,3.351,0,0,1-2.62,3.41,3.598,3.598,0,0,1-4.38-4.12,3.8901,3.8901,0,0,1,.95-2.18,5.32162,5.32162,0,0,1,1.09-.92,8.42315,8.42315,0,0,1,3.34-1.19,9.39709,9.39709,0,0,1,5,.69,6.06478,6.06478,0,0,1,3.84,4.67,9.32176,9.32176,0,0,1,.14,1.75c.05,2.18.08,4.36.12,6.55a6.35663,6.35663,0,0,0,.67,2.86,3.283,3.283,0,0,0,1.97,1.72,2.60045,2.60045,0,0,1,.34.11m-9.02-8.89a5.59447,5.59447,0,0,0-.92.29,3.64437,3.64437,0,0,0-2.15,3.15,2.38494,2.38494,0,0,0,.89,2.2.955.955,0,0,0,1.5-.22,4.0075,4.0075,0,0,0,.46-1.11,19.71781,19.71781,0,0,0,.22-4.31" transform="translate(-113.81216 -43.29941)"/></g><g class="cls-2"><path class="cls-3" d="M226.06555,98.88V98.4c.13-.01.25-.03.38-.03,3.87,0,7.75-.02,11.62.01a6.2227,6.2227,0,0,1,4.66,1.89,4.02028,4.02028,0,0,1,.69,4.49,3.74069,3.74069,0,0,1-5.21,1.22,3.27353,3.27353,0,0,1,1.68-5.96c.14,0,.28-.03.47-.05a1.38048,1.38048,0,0,0-1.06-.83,2.72357,2.72357,0,0,0-2.84.99,5.627,5.627,0,0,0-.96,2.2,20.64739,20.64739,0,0,0-.36,3.05c-.19,3.04-.06,6.09-.08,9.13v.59c-.44.12-7.49.17-8.97.07-.01-.15-.02-.3-.04-.45a.85866.85866,0,0,1,.21-.13,3.83906,3.83906,0,0,0,2.31-2.56,9.16272,9.16272,0,0,0,.45-2.14,36.49946,36.49946,0,0,0,.07-5.33,8.89422,8.89422,0,0,0-.78-3.62,3.60757,3.60757,0,0,0-2.02-1.91l-.15-.06a.44376.44376,0,0,0-.07-.09" transform="translate(-113.81216 -43.29941)"/></g><g class="cls-2"><path class="cls-3" d="M181.74555,107.74c-.01-.2-.03-.31-.03-.42-.03-1.65-.04-3.3-.1-4.95a10.66555,10.66555,0,0,0-.64-3.49,4.009,4.009,0,0,0-1.62-2.09c-.23-.14-.49-.24-.78-.38v-.44a.55463.55463,0,0,1,.17-.03c.74.08,1.49.21,2.23.25a21.84208,21.84208,0,0,0,3.62.11c.93-.1,1.86-.17,2.77-.36a1.60542,1.60542,0,0,1,.31,0c.03.04.05.05.05.06,0,1.23-.01,2.45.01,3.68a2.53984,2.53984,0,0,1-.56,1.5c-1.03,1.54-2.07,3.07-3.24,4.51a10.493,10.493,0,0,1-2.19,2.05" transform="translate(-113.81216 -43.29941)"/></g><g class="cls-2"><path class="cls-4" d="M116.27555,70.27a1.5185,1.5185,0,0,1-.7-.22,1.40875,1.40875,0,0,1-.49-.48,2.00535,2.00535,0,0,1-.26-.64,2.80213,2.80213,0,0,1-.06-.71,2.095,2.095,0,0,1,.47-1.24.30362.30362,0,0,0-.19-.31v.09a.573.573,0,0,1-.21.42.59316.59316,0,0,1-.44.15.73318.73318,0,0,1-.2-.05.571.571,0,0,1-.32-.31.6689.6689,0,0,1-.04-.46.78409.78409,0,0,1,.34-.46.74133.74133,0,0,1,.61-.08.788.788,0,0,1,.45.3.98947.98947,0,0,1,.16.55,1.67259,1.67259,0,0,1,1.24-.39,1.46408,1.46408,0,0,1,.95.42,1.9043,1.9043,0,0,1,.5.94,2.55015,2.55015,0,0,1,1-1.72,1.19763,1.19763,0,0,1,1.22-.11,1.86266,1.86266,0,0,1,.94,1.18,4.26246,4.26246,0,0,1,.19,1.65,4.40306,4.40306,0,0,1-.23,1.24,2.39427,2.39427,0,0,1-.54.91.97914.97914,0,0,1-.78.32,1.00747,1.00747,0,0,1-.74-.4,2.01765,2.01765,0,0,1-.41-.9,2.85168,2.85168,0,0,1-.01-1.05,1.1019,1.1019,0,0,1,.66-.89.90957.90957,0,0,1,.85.03.83284.83284,0,0,1,.43.8v.05a.58582.58582,0,0,1-.02.13.708.708,0,0,1-.15.33.6721.6721,0,0,1-.28.22.70247.70247,0,0,1-.35.06.71639.71639,0,0,1-.51-.25.73983.73983,0,0,1-.18-.54.76057.76057,0,0,1,.11-.33.44223.44223,0,0,0-.15.05.33261.33261,0,0,0-.12.14.51975.51975,0,0,0-.07.23.68508.68508,0,0,0,.38.72,1.33388,1.33388,0,0,0,.96.18.99718.99718,0,0,0,.81-.65,1.427,1.427,0,0,0,.09-.42,1.35013,1.35013,0,0,0-.25-.92,1.26389,1.26389,0,0,0-.71-.48,2.55417,2.55417,0,0,0-.87-.05,1.41215,1.41215,0,0,0-.77.36,1.09641,1.09641,0,0,0-.36.76l-.09,1.22-.23-.02c.01-.09.02-.21.03-.37a3.78837,3.78837,0,0,1-.2.34,1.78862,1.78862,0,0,1-.27.28,1.42156,1.42156,0,0,1-.33.21,1.24632,1.24632,0,0,1-.4.12,1.023,1.023,0,0,1-.46.05m-1.34-2.04c-.02.13.1.26.36.38a3.66037,3.66037,0,0,0,1.12.25,3.84587,3.84587,0,0,0,1.13-.06c.28-.08.42-.19.43-.33.01-.13-.11-.26-.36-.38a3.24042,3.24042,0,0,0-1.08-.23,3.304,3.304,0,0,0-1.14.06c-.29.07-.44.17-.46.31" transform="translate(-113.81216 -43.29941)"/></g><g class="cls-2"><path class="cls-4" d="M117.37555,63.26c.22.11.46.22.71.32s.56.23.94.37.62.24.73.28c-.23.57-.48,1.22-.76,1.94l-.14-.05c.05-.42-.24-.78-.86-1.08a7.939,7.939,0,0,0-1.14-.45c-.66-.21-1.11-.14-1.36.2l-.14-.05q.51-1.29.99-2.52a1.712,1.712,0,0,1,.22-.4,1.33182,1.33182,0,0,1,.59-.47.94106.94106,0,0,1,.7,0,.76291.76291,0,0,1,.44.38.906.906,0,0,1,.07.54,1.33216,1.33216,0,0,1-.05.19.76971.76971,0,0,1-1.43-.57l.03-.06a.45768.45768,0,0,0-.34.32c-.16.4.11.78.8,1.11" transform="translate(-113.81216 -43.29941)"/></g><g class="cls-2"><path class="cls-4" d="M121.57556,58.43c.6.35,1.05.39,1.38.12l.12.09q-.675.945-1.2,1.71l-.39-.28a1.35226,1.35226,0,0,1-.26,1.39.96978.96978,0,0,1-.48.35.83483.83483,0,0,1-.97-.29.953.953,0,0,1-.21-.58,1.57784,1.57784,0,0,1,.18-.77,6.64272,6.64272,0,0,1,.56-.91l-.71-.5a1.14741,1.14741,0,0,0-.79-.25.64119.64119,0,0,0-.5.31.43914.43914,0,0,0,.02.48c.02-.04.04-.07.06-.11a.739.739,0,0,1,.49-.31.74917.74917,0,0,1,.56.13.77308.77308,0,0,1,.29.4.72992.72992,0,0,1-.11.68.90221.90221,0,0,1-.52.35.784.784,0,0,1-.67-.16.99549.99549,0,0,1-.39-1.05,2.02648,2.02648,0,0,1,.65-1.18,1.58968,1.58968,0,0,1,1.27-.5,1.46078,1.46078,0,0,1,.64.23c.31.19.58.37.82.55.05.03.11.07.16.1m-.58,1.32c-.07-.06-.26-.19-.57-.41a.66139.66139,0,0,0-.08.41.95854.95854,0,0,0,.14.4.752.752,0,0,0,.36.29.49932.49932,0,0,0,.36.01.41293.41293,0,0,0,.11-.07.18814.18814,0,0,0,.05-.11.23974.23974,0,0,0-.02-.14.69465.69465,0,0,0-.12-.18c-.07-.06-.14-.13-.23-.2" transform="translate(-113.81216 -43.29941)"/></g><g class="cls-2"><path class="cls-4" d="M120.30555,55.9c.58-.52,1.1-.98,1.57-1.39l.76.85a2.22282,2.22282,0,0,1-.18-1.07.92348.92348,0,0,1,.34-.66,1.03145,1.03145,0,0,1,1.01-.06,2.45465,2.45465,0,0,1,1.18.92,1.93843,1.93843,0,0,1,.3,1.73,2.72667,2.72667,0,0,1-.79,1.2c.15.17.31.35.48.53l.51.58c-.48.42-1,.89-1.59,1.4l-.09-.11c.23-.35.13-.81-.3-1.37-.15-.2-.43-.54-.85-1.01s-.72-.79-.9-.97c-.51-.5-.95-.65-1.32-.46Zm4.08,1.42a1.45277,1.45277,0,0,0-.09-.89,2.91162,2.91162,0,0,0-.56-.95,1.33769,1.33769,0,0,0-.72-.48c-.19-.04-.26.04-.22.23a2.77285,2.77285,0,0,0,.6.96c.1.12.41.48.94,1.08Z" transform="translate(-113.81216 -43.29941)"/></g><g class="cls-2"><path class="cls-4" d="M127.95555,54.86c-.54.31-1.14.66-1.81,1.05l-.08-.13c.3-.29.29-.76-.02-1.4a12.25208,12.25208,0,0,0-.86-1.49c-.4-.59-.81-.83-1.21-.72l-.07-.13c.67-.39,1.28-.75,1.83-1.06l.38.66c.04.07.1.2.2.37s.17.3.21.38a2.21126,2.21126,0,0,1,.06-1.05.94573.94573,0,0,1,.47-.57.988.988,0,0,1,.91.06,2.0548,2.0548,0,0,1,.81.88c.23.38.4.64.5.8.4.59.8.82,1.2.71l.08.13c-.81.47-1.62.94-2.42,1.4l-.08-.13c.3-.29.29-.76-.02-1.4-.4-.83-.8-1.2-1.19-1.09a.09183.09183,0,0,0-.06.04.201.201,0,0,0-.04.08.52881.52881,0,0,0-.01.13.67188.67188,0,0,0,.03.18c.02.07.04.14.07.22a2.937,2.937,0,0,0,.12.28c.05.1.1.22.17.34.06.1.11.19.15.26Z" transform="translate(-113.81216 -43.29941)"/></g><g class="cls-2"><path class="cls-4" d="M132.18555,51.37c.3.63.65.91,1.07.87l.05.14c-.87.34-1.74.68-2.61,1.01l-.05-.14c.34-.25.41-.7.21-1.36a9.25185,9.25185,0,0,0-.44-1.14c-.29-.63-.65-.91-1.07-.87l-.05-.14a5.89648,5.89648,0,0,0,1.37-.32,6.14511,6.14511,0,0,0,1.24-.69l.05.14c-.34.25-.41.7-.21,1.36a9.25505,9.25505,0,0,0,.44,1.14m-2.34-2.43a.79672.79672,0,0,1-.44-.46.83534.83534,0,0,1,.01-.64.76931.76931,0,0,1,.46-.44.79333.79333,0,0,1,.64.02.82634.82634,0,0,1,.44.46.83589.83589,0,0,1-.01.64.76931.76931,0,0,1-.46.44.83474.83474,0,0,1-.64-.02" transform="translate(-113.81216 -43.29941)"/></g><g class="cls-2"><path class="cls-4" d="M134.89556,52.04a1.7384,1.7384,0,0,1-1.29-.45,2.165,2.165,0,0,1-.73-1.23,1.91058,1.91058,0,0,1,.02-.89,1.99783,1.99783,0,0,1,.37-.76,2.41572,2.41572,0,0,1,.64-.54,1.90791,1.90791,0,0,1,.79-.27,1.59231,1.59231,0,0,1,.62.03,1.16074,1.16074,0,0,1,.5.27,1.00651,1.00651,0,0,1,.29.5.78278.78278,0,0,1-.09.68.928.928,0,0,1-.51.36.58526.58526,0,0,1-.13.02.75052.75052,0,0,1-.83-.56.66849.66849,0,0,1,.03-.44.43349.43349,0,0,1,.01-.05v.01a.74213.74213,0,0,1,.5-.43.77289.77289,0,0,1,.15-.02.43455.43455,0,0,0-.23-.19.44227.44227,0,0,0-.3-.01.57339.57339,0,0,0-.35.22.76776.76776,0,0,0-.17.39,1.87953,1.87953,0,0,0-.03.48,2.412,2.412,0,0,0,.07.48,2.49111,2.49111,0,0,0,.14.39,1.79494,1.79494,0,0,0,.58.64,1.14522,1.14522,0,0,0,.75.19,1.28092,1.28092,0,0,0,.76-.38l.13.17a2.28368,2.28368,0,0,1-.67.97,1.86029,1.86029,0,0,1-1.02.42" transform="translate(-113.81216 -43.29941)"/></g><g class="cls-2"><path class="cls-4" d="M142.32555,50.96h0a1.19251,1.19251,0,0,0-.15.01,2.32369,2.32369,0,0,1-2.08-.93,2.28967,2.28967,0,0,1-.38-1.59,1.74735,1.74735,0,0,1,.52-1.15.85842.85842,0,0,1,.55-.24,1.181,1.181,0,0,1,.68.16,1.36248,1.36248,0,0,1,.53.58c-.01-.28-.03-.46-.03-.54l-.04-.77c.63-.04,1.34-.07,2.11-.11l.01.15c-.4.12-.61.54-.62,1.26a9.92053,9.92053,0,0,0,.09,1.72c.09.71.34,1.1.74,1.19l.01.15c-.73.05-1.38.08-1.94.11m-1-1.94a2.76075,2.76075,0,0,0,.26,1.08,1.47881,1.47881,0,0,0,.56.7c0-.08-.02-.39-.05-.92s-.04-.83-.05-.9a4.26721,4.26721,0,0,0-.11-.81c-.06-.19-.12-.28-.19-.27a.27715.27715,0,0,0-.2.15,1.05049,1.05049,0,0,0-.16.42,1.69226,1.69226,0,0,0-.06.55" transform="translate(-113.81216 -43.29941)"/></g><g class="cls-2"><path class="cls-4" d="M144.35555,48.83a1.84659,1.84659,0,0,1,.9-1.41,2.46546,2.46546,0,0,1,1.46-.4,1.25828,1.25828,0,0,1,1.08.55,1.14468,1.14468,0,0,1,.14.77,1.3665,1.3665,0,0,1-.51.86,2.17752,2.17752,0,0,1-1.27.4,1.23946,1.23946,0,0,0,.69.51,1.25741,1.25741,0,0,0,.91-.12l.08.21a2.23036,2.23036,0,0,1-.93.7,1.87284,1.87284,0,0,1-1.1.09,1.77468,1.77468,0,0,1-1.1-.79,2.09714,2.09714,0,0,1-.35-1.37m1.46-.41a1.7791,1.7791,0,0,0,.22.98,1.13151,1.13151,0,0,0,.38-.54,2.1759,2.1759,0,0,0,.12-.72,1.67635,1.67635,0,0,0-.11-.59c-.07-.17-.15-.26-.25-.27-.09-.01-.18.1-.25.33a2.56135,2.56135,0,0,0-.11.81" transform="translate(-113.81216 -43.29941)"/></g><g class="cls-2"><path class="cls-4" d="M149.39556,47.48a2.22163,2.22163,0,0,1,1.46-.01,3.622,3.622,0,0,1,1.51.74l-.43,1.11-.18-.03a1.5928,1.5928,0,0,0-.08-1.07.83812.83812,0,0,0-.58-.45.48607.48607,0,0,0-.48.11c-.1.11-.08.24.06.38.11.12.24.26.39.43s.28.31.38.44q.15.18.18.21a1.43014,1.43014,0,0,1,.38.66,1.352,1.352,0,0,1,.02.69,1.14038,1.14038,0,0,1-.35.58,1.40607,1.40607,0,0,1-.66.35,2.96405,2.96405,0,0,1-1.22-.02,2.25923,2.25923,0,0,1-1.01-.46.96185.96185,0,0,1-.31-.52,1.03451,1.03451,0,0,1,.01-.58.77363.77363,0,0,1,.34-.44.85445.85445,0,0,1,.62-.11.78726.78726,0,0,1,.4.19.63942.63942,0,0,1,.21.35.76924.76924,0,0,1,.03.37.78442.78442,0,0,1-.31.5.7071.7071,0,0,1-.58.13.18544.18544,0,0,1-.07-.02.50564.50564,0,0,0,.28.31.87689.87689,0,0,0,.46.06.89339.89339,0,0,0,.45-.19.64828.64828,0,0,0,.24-.41.93536.93536,0,0,0-.02-.37,1.26133,1.26133,0,0,0-.13-.33,1.37385,1.37385,0,0,0-.26-.33c-.12-.13-.22-.22-.29-.29s-.19-.17-.33-.29c-.01-.01-.02-.01-.03-.02s-.02-.02-.03-.02-.02-.02-.03-.02a2.87653,2.87653,0,0,1-.35-.36.853.853,0,0,1-.17-.36.67.67,0,0,1,.07-.47.74419.74419,0,0,1,.41-.44" transform="translate(-113.81216 -43.29941)"/></g><g class="cls-2"><path class="cls-4" d="M154.61556,51.03c-.13.68,0,1.12.36,1.33l-.04.14c-.91-.23-1.81-.46-2.71-.7l.04-.14q.63,0,.96-.99a9.75735,9.75735,0,0,0,.31-1.18c.12-.68,0-1.12-.36-1.33l.04-.14a5.82993,5.82993,0,0,0,1.3.53,7.24,7.24,0,0,0,1.41.17l-.04.14q-.63,0-.96.99a6.60026,6.60026,0,0,0-.31,1.18m-.48-3.34a.8344.8344,0,0,1,.29-1.14.77971.77971,0,0,1,.63-.09.85288.85288,0,0,1,.51.38.8344.8344,0,0,1-.29,1.14.77971.77971,0,0,1-.63.09.799.799,0,0,1-.51-.38" transform="translate(-113.81216 -43.29941)"/></g><g class="cls-2"><path class="cls-4" d="M155.77556,50.31a1.50855,1.50855,0,0,1,.38-.62,1.48374,1.48374,0,0,1,.58-.36,2.19531,2.19531,0,0,1,.68-.1,2.51671,2.51671,0,0,1,.71.12,2.05526,2.05526,0,0,1,1.08.76.31364.31364,0,0,0,.35-.1c-.03-.01-.06-.01-.09-.02a.56687.56687,0,0,1-.35-.31.531.531,0,0,1-.03-.46.54258.54258,0,0,1,.1-.18.56272.56272,0,0,1,.38-.23.66129.66129,0,0,1,.46.08.82685.82685,0,0,1,.36.44.7433.7433,0,0,1-.07.61.7026.7026,0,0,1-.4.36,1.02732,1.02732,0,0,1-.58.02,1.66432,1.66432,0,0,1,.07,1.3,1.38774,1.38774,0,0,1-.64.81,1.87727,1.87727,0,0,1-1.03.25,2.56874,2.56874,0,0,1,1.42,1.39,1.19735,1.19735,0,0,1-.2,1.21,1.86625,1.86625,0,0,1-1.38.61,4.374,4.374,0,0,1-1.65-.23,4.60952,4.60952,0,0,1-1.14-.53,2.292,2.292,0,0,1-.74-.75.98678.98678,0,0,1,.45-1.46,1.93766,1.93766,0,0,1,.97-.18,2.63633,2.63633,0,0,1,1.01.25,1.11831,1.11831,0,0,1,.7.86.92822.92822,0,0,1-.24.82.83086.83086,0,0,1-.88.22c-.02-.01-.03-.01-.05-.02a.61146.61146,0,0,1-.12-.05.689.689,0,0,1-.28-.22.76575.76575,0,0,1-.14-.32.68978.68978,0,0,1,.03-.35.73421.73421,0,0,1,.93-.47.69846.69846,0,0,1,.29.19.4331.4331,0,0,0-.01-.16.36054.36054,0,0,0-.11-.15.76849.76849,0,0,0-.2-.13.682.682,0,0,0-.79.19,1.26468,1.26468,0,0,0-.41.89,1.02536,1.02536,0,0,0,.43.95,1.50164,1.50164,0,0,0,.38.19,1.3453,1.3453,0,0,0,.95-.01,1.23634,1.23634,0,0,0,.64-.57,2.23452,2.23452,0,0,0,.26-.83,1.38359,1.38359,0,0,0-.16-.84,1.12821,1.12821,0,0,0-.65-.54l-1.16-.39.07-.22c.08.03.2.07.35.12a2.46659,2.46659,0,0,1-.28-.28,1.8532,1.8532,0,0,1-.21-.33,1.23373,1.23373,0,0,1-.12-.37,1.39652,1.39652,0,0,1-.02-.41,2.42225,2.42225,0,0,1,.1-.45m2.32-.8c-.12-.05-.28.03-.46.25a3.35967,3.35967,0,0,0-.52,1.03,3.64537,3.64537,0,0,0-.22,1.11c.01.29.08.45.21.49s.28-.04.45-.26a3.05742,3.05742,0,0,0,.49-.98,3.46925,3.46925,0,0,0,.23-1.12c.01-.29-.06-.46-.18-.52" transform="translate(-113.81216 -43.29941)"/></g><g class="cls-2"><path class="cls-4" d="M161.42555,54.77c-.59-.19-1.25-.41-1.98-.65l.05-.14c.42.03.76-.28,1.02-.92a8.272,8.272,0,0,0,.38-1.16c.17-.67.08-1.12-.28-1.35l.05-.14c.73.24,1.39.46,1.98.65l-.34,1.03a2.095,2.095,0,0,1,.82-.66.95916.95916,0,0,1,.74-.03.94252.94252,0,0,1,.56.72,2.09062,2.09062,0,0,1-.11,1.19q-.195.63-.27.9c-.17.68-.08,1.14.27,1.37l-.05.14c-.89-.29-1.77-.58-2.66-.88l.05-.14c.42.03.76-.29,1.03-.94.36-.85.36-1.38.02-1.61a.19208.19208,0,0,0-.19.02,1.04712,1.04712,0,0,0-.26.32,3.6742,3.6742,0,0,0-.3.65Z" transform="translate(-113.81216 -43.29941)"/></g></svg>